Oswald--600.ufo
<glyph name="exclam" format="1">
  <advance width="500"/>
  <unicode hex="0021"/>
  <outline>
    <contour>
      <point x="94" y="0" type="line"/>
      <point x="389" y="0" type="line"/>
      <point x="389" y="293" type="line"/>
      <point x="94" y="293" type="line"/>
    </contour>
    <contour>
      <point x="189" y="404" type="line"/>
      <point x="297" y="404" type="line"/>
      <point x="406" y="1655" type="line"/>
      <point x="98" y="1655" type="line"/>
    </contour>
  </outline>
</glyph>
<glyph name="parenleft" format="1">
  <advance width="674"/>
  <unicode hex="0028"/>
  <outline>
    <contour>
      <point x="605" y="-381" type="curve"/>
      <point x="605" y="-166" type="line"/>
      <point x="447" y="-166"/>
      <point x="421" y="152"/>
      <point x="421" y="641" type="curve" smooth="yes"/>
      <point x="421" y="1123"/>
      <point x="441" y="1461"/>
      <point x="605" y="1461" type="curve"/>
      <point x="605" y="1676" type="line"/>
      <point x="164" y="1678"/>
      <point x="132" y="1186"/>
      <point x="132" y="641" type="curve" smooth="yes"/>
      <point x="132" y="125"/>
      <point x="164" y="-383"/>
    </contour>
  </outline>
</glyph>
<glyph name="two" format="1">
  <advance width="1058"/>
  <unicode hex="0032"/>
  <outline>
    <contour>
      <point x="103" y="0" type="line"/>
      <point x="950" y="0" type="line"/>
      <point x="950" y="251" type="line"/>
      <point x="462" y="251" type="line"/>
      <point x="782" y="734" type="line" smooth="yes"/>
      <point x="888" y="891"/>
      <point x="994" y="1031"/>
      <point x="994" y="1244" type="curve" smooth="yes"/>
      <point x="994" y="1517"/>
      <point x="848" y="1682"/>
      <point x="556" y="1682" type="curve" smooth="yes"/>
      <point x="232" y="1682"/>
      <point x="108" y="1467"/>
      <point x="108" y="1173" type="curve"/>
      <point x="108" y="1093" type="line"/>
      <point x="416" y="1093" type="line"/>
      <point x="416" y="1093"/>
      <point x="416" y="1168"/>
      <point x="416" y="1168" type="curve" smooth="yes"/>
      <point x="416" y="1315"/>
      <point x="452" y="1405"/>
      <point x="547" y="1414" type="curve" smooth="yes"/>
      <point x="633" y="1423"/>
      <point x="681" y="1362"/>
      <point x="681" y="1247" type="curve" smooth="yes"/>
      <point x="681" y="1091"/>
      <point x="582" y="969"/>
      <point x="502" y="844" type="curve" smooth="yes"/>
      <point x="103" y="223" type="line"/>
    </contour>
  </outline>
</glyph>
<glyph name="N" format="1">
  <advance width="1131"/>
  <unicode hex="004E"/>
  <outline>
    <contour>
      <point x="123" y="0" type="line"/>
      <point x="411" y="0" type="line"/>
      <point x="411" y="916" type="line"/>
      <point x="783" y="0" type="line"/>
      <point x="1008" y="0" type="line"/>
      <point x="1008" y="1658" type="line"/>
      <point x="728" y="1658" type="line"/>
      <point x="728" y="797" type="line"/>
      <point x="358" y="1658" type="line"/>
      <point x="123" y="1658" type="line"/>
    </contour>
  </outline>
</glyph>
<glyph name="R" format="1">
  <advance width="1185"/>
  <unicode hex="0052"/>
  <outline>
    <contour>
      <point x="123" y="0" type="line"/>
      <point x="460" y="0" type="line"/>
      <point x="460" y="748" type="line"/>
      <point x="577" y="748" type="line"/>
      <point x="767" y="0" type="line"/>
      <point x="1111" y="0" type="line"/>
      <point x="882" y="809" type="line"/>
      <point x="1037" y="880"/>
      <point x="1084" y="1016"/>
      <point x="1084" y="1218" type="curve" smooth="yes"/>
      <point x="1084" y="1563"/>
      <point x="877" y="1658"/>
      <point x="542" y="1658" type="curve" smooth="yes"/>
      <point x="123" y="1658" type="line"/>
    </contour>
    <contour>
      <point x="460" y="952" type="line"/>
      <point x="460" y="1429" type="line"/>
      <point x="563" y="1429" type="line" smooth="yes"/>
      <point x="723" y="1429"/>
      <point x="768" y="1350"/>
      <point x="768" y="1193" type="curve" smooth="yes"/>
      <point x="768" y="1028"/>
      <point x="710" y="952"/>
      <point x="544" y="952" type="curve" smooth="yes"/>
    </contour>
  </outline>
</glyph>
<glyph name="b" format="1">
  <advance width="1010"/>
  <unicode hex="0062"/>
  <outline>
    <contour>
      <point x="654" y="-20" type="curve" smooth="yes"/>
      <point x="841" y="-20"/>
      <point x="923" y="154"/>
      <point x="923" y="378" type="curve" smooth="yes"/>
      <point x="923" y="831" type="line" smooth="yes"/>
      <point x="923" y="998"/>
      <point x="865" y="1199"/>
      <point x="666" y="1203" type="curve" smooth="yes"/>
      <point x="578" y="1205"/>
      <point x="491" y="1165"/>
      <point x="417" y="1096" type="curve"/>
      <point x="417" y="1658" type="line"/>
      <point x="108" y="1658" type="line"/>
      <point x="108" y="0" type="line"/>
      <point x="417" y="0" type="line"/>
      <point x="417" y="88" type="line"/>
      <point x="487" y="24"/>
      <point x="570" y="-20"/>
    </contour>
    <contour>
      <point x="524" y="190" type="curve" smooth="yes"/>
      <point x="485" y="191"/>
      <point x="448" y="204"/>
      <point x="417" y="223" type="curve"/>
      <point x="417" y="962" type="line"/>
      <point x="449" y="985"/>
      <point x="486" y="1003"/>
      <point x="519" y="1004" type="curve" smooth="yes"/>
      <point x="593" y="1008"/>
      <point x="613" y="931"/>
      <point x="613" y="850" type="curve" smooth="yes"/>
      <point x="613" y="365" type="line" smooth="yes"/>
      <point x="613" y="271"/>
      <point x="597" y="189"/>
    </contour>
  </outline>
</glyph>
<glyph name="f" format="1">
  <advance width="642"/>
  <unicode hex="0066"/>
  <outline>
    <contour>
      <point x="156" y="0" type="line"/>
      <point x="465" y="0" type="line"/>
      <point x="465" y="970" type="line"/>
      <point x="622" y="970" type="line"/>
      <point x="622" y="1184" type="line"/>
      <point x="465" y="1184" type="line"/>
      <point x="465" y="1276" type="line" smooth="yes"/>
      <point x="465" y="1345"/>
      <point x="490" y="1382"/>
      <point x="549" y="1382" type="curve" smooth="yes"/>
      <point x="573" y="1382"/>
      <point x="601" y="1375"/>
      <point x="622" y="1372" type="curve"/>
      <point x="622" y="1602" type="line"/>
      <point x="561" y="1609"/>
      <point x="519" y="1613"/>
      <point x="466" y="1613" type="curve" smooth="yes"/>
      <point x="193" y="1613"/>
      <point x="156" y="1474"/>
      <point x="156" y="1258" type="curve" smooth="yes"/>
      <point x="156" y="1184" type="line"/>
      <point x="36" y="1184" type="line"/>
      <point x="36" y="970" type="line"/>
      <point x="156" y="970" type="line"/>
    </contour>
  </outline>
</glyph>
<glyph name="j" format="1">
  <advance width="544"/>
  <unicode hex="006A"/>
  <outline>
    <contour>
      <point x="-24" y="-325" type="line"/>
      <point x="24" y="-339"/>
      <point x="82" y="-348"/>
      <point x="139" y="-348" type="curve" smooth="yes"/>
      <point x="335" y="-348"/>
      <point x="442" y="-224"/>
      <point x="442" y="-38" type="curve" smooth="yes"/>
      <point x="442" y="1184" type="line"/>
      <point x="133" y="1184" type="line"/>
      <point x="133" y="-2" type="line" smooth="yes"/>
      <point x="133" y="-76"/>
      <point x="98" y="-110"/>
      <point x="35" y="-110" type="curve" smooth="yes"/>
      <point x="17" y="-110"/>
      <point x="-7" y="-106"/>
      <point x="-24" y="-103" type="curve"/>
    </contour>
    <contour>
      <point x="132" y="1378" type="line"/>
      <point x="443" y="1378" type="line"/>
      <point x="443" y="1613" type="line"/>
      <point x="132" y="1613" type="line"/>
    </contour>
  </outline>
</glyph>
<glyph name="r" format="1">
  <advance width="738"/>
  <unicode hex="0072"/>
  <outline>
    <contour>
      <point x="110" y="0" type="line"/>
      <point x="419" y="0" type="line"/>
      <point x="419" y="783" type="line"/>
      <point x="481" y="875"/>
      <point x="545" y="913"/>
      <point x="633" y="917" type="curve" smooth="yes"/>
      <point x="658" y="917"/>
      <point x="686" y="912"/>
      <point x="706" y="905" type="curve"/>
      <point x="706" y="1192" type="line"/>
      <point x="689" y="1197"/>
      <point x="676" y="1199"/>
      <point x="661" y="1199" type="curve" smooth="yes"/>
      <point x="573" y="1199"/>
      <point x="495" y="1135"/>
      <point x="419" y="994" type="curve"/>
      <point x="419" y="1184" type="line"/>
      <point x="110" y="1184" type="line"/>
    </contour>
  </outline>
</glyph>
<glyph name="braceright" format="1">
  <advance width="756"/>
  <unicode hex="007D"/>
  <outline>
    <contour>
      <point x="82" y="-401" type="line"/>
      <point x="497" y="-401"/>
      <point x="534" y="-304"/>
      <point x="534" y="31" type="curve" smooth="yes"/>
      <point x="534" y="231" type="line" smooth="yes"/>
      <point x="534" y="505"/>
      <point x="543" y="535"/>
      <point x="663" y="535" type="curve"/>
      <point x="663" y="754" type="line"/>
      <point x="543" y="754"/>
      <point x="534" y="784"/>
      <point x="534" y="1057" type="curve" smooth="yes"/>
      <point x="534" y="1257" type="line" smooth="yes"/>
      <point x="534" y="1593"/>
      <point x="497" y="1689"/>
      <point x="82" y="1689" type="curve"/>
      <point x="82" y="1477" type="line"/>
      <point x="224" y="1477"/>
      <point x="238" y="1450"/>
      <point x="238" y="1244" type="curve" smooth="yes"/>
      <point x="238" y="1020" type="line" smooth="yes"/>
      <point x="238" y="795"/>
      <point x="281" y="674"/>
      <point x="407" y="644" type="curve"/>
      <point x="281" y="615"/>
      <point x="238" y="494"/>
      <point x="238" y="269" type="curve" smooth="yes"/>
      <point x="238" y="45" type="line" smooth="yes"/>
      <point x="238" y="-162"/>
      <point x="224" y="-189"/>
      <point x="82" y="-189" type="curve"/>
    </contour>
  </outline>
</glyph>
<glyph name="exclamdown" format="1">
  <advance width="471"/>
  <unicode hex="00A1"/>
  <outline>
    <contour>
      <point x="80" y="-327" type="line"/>
      <point x="388" y="-327" type="line"/>
      <point x="297" y="923" type="line"/>
      <point x="189" y="923" type="line"/>
    </contour>
    <contour>
      <point x="97" y="1035" type="line"/>
      <point x="392" y="1035" type="line"/>
      <point x="392" y="1327" type="line"/>
      <point x="97" y="1327" type="line"/>
    </contour>
  </outline>
</glyph>
<glyph name="cent" format="1">
  <advance width="898"/>
  <unicode hex="00A2"/>
  <outline>
    <contour>
      <point x="417" y="-236" type="line"/>
      <point x="499" y="-236" type="line"/>
      <point x="499" y="-19" type="line"/>
      <point x="736" y="-12"/>
      <point x="855" y="113"/>
      <point x="855" y="344" type="curve" smooth="yes"/>
      <point x="855" y="473" type="line"/>
      <point x="561" y="473" type="line"/>
      <point x="561" y="336" type="line" smooth="yes"/>
      <point x="561" y="246"/>
      <point x="540" y="203"/>
      <point x="476" y="203" type="curve" smooth="yes"/>
      <point x="418" y="203"/>
      <point x="390" y="234"/>
      <point x="390" y="364" type="curve" smooth="yes"/>
      <point x="390" y="817" type="line" smooth="yes"/>
      <point x="390" y="942"/>
      <point x="413" y="982"/>
      <point x="476" y="982" type="curve" smooth="yes"/>
      <point x="534" y="982"/>
      <point x="561" y="951"/>
      <point x="561" y="845" type="curve" smooth="yes"/>
      <point x="561" y="731" type="line"/>
      <point x="855" y="731" type="line"/>
      <point x="855" y="843" type="line" smooth="yes"/>
      <point x="855" y="1077"/>
      <point x="739" y="1195"/>
      <point x="499" y="1203" type="curve"/>
      <point x="499" y="1417" type="line"/>
      <point x="417" y="1417" type="line"/>
      <point x="417" y="1201" type="line"/>
      <point x="189" y="1179"/>
      <point x="79" y="1028"/>
      <point x="79" y="787" type="curve" smooth="yes"/>
      <point x="79" y="398" type="line" smooth="yes"/>
      <point x="79" y="157"/>
      <point x="188" y="5"/>
      <point x="417" y="-17" type="curve"/>
    </contour>
  </outline>
</glyph>
<glyph name="copyright" format="1">
  <advance width="1797"/>
  <unicode hex="00A9"/>
  <outline>
    <contour>
      <point x="900" y="254" type="curve" smooth="yes"/>
      <point x="1173" y="254"/>
      <point x="1315" y="377"/>
      <point x="1315" y="615" type="curve" smooth="yes"/>
      <point x="1315" y="722" type="line"/>
      <point x="998" y="722" type="line"/>
      <point x="998" y="606" type="line" smooth="yes"/>
      <point x="998" y="516"/>
      <point x="973" y="471"/>
      <point x="902" y="471" type="curve" smooth="yes"/>
      <point x="839" y="471"/>
      <point x="804" y="503"/>
      <point x="804" y="634" type="curve" smooth="yes"/>
      <point x="804" y="1047" type="line" smooth="yes"/>
      <point x="804" y="1174"/>
      <point x="833" y="1214"/>
      <point x="902" y="1214" type="curve" smooth="yes"/>
      <point x="966" y="1214"/>
      <point x="998" y="1182"/>
      <point x="998" y="1075" type="curve" smooth="yes"/>
      <point x="998" y="974" type="line"/>
      <point x="1315" y="974" type="line"/>
      <point x="1315" y="1074" type="line" smooth="yes"/>
      <point x="1315" y="1314"/>
      <point x="1177" y="1430"/>
      <point x="900" y="1430" type="curve" smooth="yes"/>
      <point x="606" y="1430"/>
      <point x="470" y="1275"/>
      <point x="470" y="1017" type="curve" smooth="yes"/>
      <point x="470" y="669" type="line" smooth="yes"/>
      <point x="470" y="411"/>
      <point x="605" y="254"/>
    </contour>
    <contour>
      <point x="903" y="60" type="curve" smooth="yes"/>
      <point x="401" y="60"/>
      <point x="182" y="446"/>
      <point x="182" y="834" type="curve" smooth="yes"/>
      <point x="182" y="1225"/>
      <point x="401" y="1604"/>
      <point x="903" y="1604" type="curve" smooth="yes"/>
      <point x="1403" y="1604"/>
      <point x="1623" y="1225"/>
      <point x="1623" y="834" type="curve" smooth="yes"/>
      <point x="1623" y="446"/>
      <point x="1403" y="60"/>
    </contour>
    <contour>
      <point x="899" y="-25" type="curve" smooth="yes"/>
      <point x="1482" y="-25"/>
      <point x="1716" y="420"/>
      <point x="1716" y="835" type="curve" smooth="yes"/>
      <point x="1716" y="1250"/>
      <point x="1480" y="1695"/>
      <point x="899" y="1695" type="curve" smooth="yes"/>
      <point x="317" y="1695"/>
      <point x="81" y="1250"/>
      <point x="81" y="835" type="curve" smooth="yes"/>
      <point x="81" y="422"/>
      <point x="317" y="-25"/>
    </contour>
  </outline>
</glyph>
<glyph name="guillemotleft" format="1">
  <advance width="986"/>
  <unicode hex="00AB"/>
  <outline>
    <contour>
      <point x="454" y="68" type="line"/>
      <point x="454" y="384" type="line"/>
      <point x="262" y="605" type="line"/>
      <point x="454" y="826" type="line"/>
      <point x="454" y="1143" type="line"/>
      <point x="71" y="663" type="line"/>
      <point x="71" y="547" type="line"/>
    </contour>
    <contour>
      <point x="892" y="68" type="line"/>
      <point x="892" y="384" type="line"/>
      <point x="700" y="605" type="line"/>
      <point x="892" y="826" type="line"/>
      <point x="892" y="1143" type="line"/>
      <point x="508" y="663" type="line"/>
      <point x="508" y="547" type="line"/>
    </contour>
  </outline>
</glyph>
<glyph name="paragraph" format="1">
  <advance width="1053"/>
  <unicode hex="00B6"/>
  <outline>
    <contour>
      <point x="391" y="-196" type="line"/>
      <point x="579" y="-196" type="line"/>
      <point x="579" y="1490" type="line"/>
      <point x="738" y="1490" type="line"/>
      <point x="738" y="-196" type="line"/>
      <point x="917" y="-196" type="line"/>
      <point x="917" y="1658" type="line"/>
      <point x="464" y="1658" type="line" smooth="yes"/>
      <point x="248" y="1658"/>
      <point x="71" y="1578"/>
      <point x="71" y="1335" type="curve" smooth="yes"/>
      <point x="71" y="1131"/>
      <point x="203" y="1018"/>
      <point x="391" y="1015" type="curve"/>
    </contour>
  </outline>
</glyph>
<glyph name="Dcroat" format="1">
  <advance width="1176"/>
  <unicode hex="0110"/>
  <outline>
    <contour>
      <point x="462" y="235" type="line"/>
      <point x="462" y="771" type="line"/>
      <point x="564" y="771" type="line"/>
      <point x="564" y="933" type="line"/>
      <point x="462" y="933" type="line"/>
      <point x="462" y="1420" type="line"/>
      <point x="541" y="1420" type="line" smooth="yes"/>
      <point x="722" y="1420"/>
      <point x="738" y="1351"/>
      <point x="738" y="1175" type="curve" smooth="yes"/>
      <point x="738" y="510" type="line" smooth="yes"/>
      <point x="738" y="326"/>
      <point x="731" y="235"/>
      <point x="543" y="235" type="curve" smooth="yes"/>
    </contour>
    <contour>
      <point x="131" y="0" type="line"/>
      <point x="542" y="0" type="line" smooth="yes"/>
      <point x="951" y="0"/>
      <point x="1077" y="166"/>
      <point x="1077" y="539" type="curve" smooth="yes"/>
      <point x="1077" y="1137" type="line" smooth="yes"/>
      <point x="1077" y="1503"/>
      <point x="953" y="1658"/>
      <point x="534" y="1658" type="curve" smooth="yes"/>
      <point x="131" y="1658" type="line"/>
      <point x="131" y="933" type="line"/>
      <point x="29" y="933" type="line"/>
      <point x="29" y="771" type="line"/>
      <point x="131" y="771" type="line"/>
    </contour>
  </outline>
</glyph>
<glyph name="tildecomb" format="1">
  <advance width="876"/>
  <unicode hex="0303"/>
  <outline>
    <contour>
      <point x="621" y="1382" type="curve" smooth="yes"/>
      <point x="744" y="1388"/>
      <point x="768" y="1522"/>
      <point x="767" y="1658" type="curve"/>
      <point x="623" y="1658" type="line"/>
      <point x="623" y="1608"/>
      <point x="610" y="1575"/>
      <point x="569" y="1580" type="curve" smooth="yes"/>
      <point x="517" y="1585"/>
      <point x="410" y="1679"/>
      <point x="294" y="1672" type="curve" smooth="yes"/>
      <point x="155" y="1664"/>
      <point x="121" y="1554"/>
      <point x="121" y="1396" type="curve"/>
      <point x="275" y="1396" type="line"/>
      <point x="275" y="1443"/>
      <point x="287" y="1480"/>
      <point x="329" y="1480" type="curve" smooth="yes"/>
      <point x="398" y="1480"/>
      <point x="521" y="1377"/>
    </contour>
  </outline>
</glyph>
<glyph name="afii10053" format="1">
  <advance width="1109"/>
  <unicode hex="0404"/>
  <outline>
    <contour>
      <point x="584" y="-22" type="curve" smooth="yes"/>
      <point x="946" y="-22"/>
      <point x="1049" y="188"/>
      <point x="1049" y="478" type="curve" smooth="yes"/>
      <point x="1049" y="556" type="line"/>
      <point x="720" y="556" type="line"/>
      <point x="720" y="456" type="line" smooth="yes"/>
      <point x="720" y="332"/>
      <point x="718" y="221"/>
      <point x="585" y="221" type="curve" smooth="yes"/>
      <point x="469" y="221"/>
      <point x="441" y="306"/>
      <point x="441" y="456" type="curve" smooth="yes"/>
      <point x="441" y="745" type="line"/>
      <point x="744" y="745" type="line"/>
      <point x="744" y="938" type="line"/>
      <point x="441" y="938" type="line"/>
      <point x="441" y="1197" type="line" smooth="yes"/>
      <point x="441" y="1325"/>
      <point x="450" y="1437"/>
      <point x="585" y="1437" type="curve" smooth="yes"/>
      <point x="722" y="1437"/>
      <point x="720" y="1328"/>
      <point x="720" y="1212" type="curve" smooth="yes"/>
      <point x="720" y="1112" type="line"/>
      <point x="1049" y="1112" type="line"/>
      <point x="1049" y="1200" type="line" smooth="yes"/>
      <point x="1049" y="1488"/>
      <point x="938" y="1679"/>
      <point x="584" y="1679" type="curve" smooth="yes"/>
      <point x="212" y="1679"/>
      <point x="98" y="1465"/>
      <point x="98" y="1120" type="curve" smooth="yes"/>
      <point x="98" y="535" type="line" smooth="yes"/>
      <point x="98" y="202"/>
      <point x="212" y="-22"/>
    </contour>
  </outline>
</glyph>
<glyph name="afii10059" format="1">
  <advance width="1684"/>
  <unicode hex="040A"/>
  <outline>
    <contour>
      <point x="1095" y="0" type="line"/>
      <point x="1407" y="0"/>
      <point x="1623" y="92"/>
      <point x="1623" y="483" type="curve" smooth="yes"/>
      <point x="1623" y="831"/>
      <point x="1445" y="961"/>
      <point x="1115" y="961" type="curve" smooth="yes"/>
      <point x="1071" y="961" type="line"/>
      <point x="1071" y="1660" type="line"/>
      <point x="734" y="1660" type="line"/>
      <point x="734" y="978" type="line"/>
      <point x="466" y="978" type="line"/>
      <point x="466" y="1660" type="line"/>
      <point x="128" y="1660" type="line"/>
      <point x="128" y="1" type="line"/>
      <point x="466" y="1" type="line"/>
      <point x="466" y="724" type="line"/>
      <point x="734" y="724" type="line"/>
      <point x="734" y="1" type="line"/>
    </contour>
    <contour>
      <point x="1071" y="226" type="line"/>
      <point x="1071" y="726" type="line"/>
      <point x="1092" y="726" type="line" smooth="yes"/>
      <point x="1263" y="726"/>
      <point x="1308" y="637"/>
      <point x="1310" y="488" type="curve" smooth="yes"/>
      <point x="1313" y="290"/>
      <point x="1251" y="226"/>
      <point x="1097" y="226" type="curve" smooth="yes"/>
    </contour>
  </outline>
</glyph>
<glyph name="afii10030" format="1">
  <advance width="1421"/>
  <unicode hex="041C"/>
  <outline>
    <contour>
      <point x="119" y="0" type="line"/>
      <point x="366" y="0" type="line"/>
      <point x="385" y="1080" type="line"/>
      <point x="628" y="0" type="line"/>
      <point x="801" y="0" type="line"/>
      <point x="1037" y="1074" type="line"/>
      <point x="1058" y="0" type="line"/>
      <point x="1302" y="0" type="line"/>
      <point x="1275" y="1658" type="line"/>
      <point x="939" y="1658" type="line"/>
      <point x="710" y="634" type="line"/>
      <point x="492" y="1658" type="line"/>
      <point x="146" y="1658" type="line"/>
    </contour>
  </outline>
</glyph>
<glyph name="afii10035" format="1">
  <advance width="1128"/>
  <unicode hex="0421"/>
  <outline>
    <contour>
      <point x="582" y="-22" type="curve" smooth="yes"/>
      <point x="944" y="-22"/>
      <point x="1047" y="188"/>
      <point x="1047" y="478" type="curve" smooth="yes"/>
      <point x="1047" y="618" type="line"/>
      <point x="718" y="618" type="line"/>
      <point x="718" y="456" type="line" smooth="yes"/>
      <point x="718" y="332"/>
      <point x="715" y="221"/>
      <point x="583" y="221" type="curve" smooth="yes"/>
      <point x="467" y="221"/>
      <point x="439" y="306"/>
      <point x="439" y="456" type="curve" smooth="yes"/>
      <point x="439" y="1197" type="line" smooth="yes"/>
      <point x="439" y="1325"/>
      <point x="448" y="1437"/>
      <point x="583" y="1437" type="curve" smooth="yes"/>
      <point x="719" y="1437"/>
      <point x="718" y="1328"/>
      <point x="718" y="1212" type="curve" smooth="yes"/>
      <point x="718" y="1056" type="line"/>
      <point x="1047" y="1056" type="line"/>
      <point x="1047" y="1200" type="line" smooth="yes"/>
      <point x="1047" y="1488"/>
      <point x="936" y="1679"/>
      <point x="582" y="1679" type="curve" smooth="yes"/>
      <point x="209" y="1679"/>
      <point x="96" y="1465"/>
      <point x="96" y="1120" type="curve" smooth="yes"/>
      <point x="96" y="535" type="line" smooth="yes"/>
      <point x="96" y="202"/>
      <point x="209" y="-22"/>
    </contour>
  </outline>
</glyph>
<glyph name="afii10041" format="1">
  <advance width="1208"/>
  <unicode hex="0427"/>
  <outline>
    <contour>
      <point x="742" y="0" type="line"/>
      <point x="1079" y="0" type="line"/>
      <point x="1079" y="1658" type="line"/>
      <point x="742" y="1658" type="line"/>
      <point x="742" y="908" type="line"/>
      <point x="695" y="899"/>
      <point x="654" y="895"/>
      <point x="618" y="895" type="curve" smooth="yes"/>
      <point x="441" y="895"/>
      <point x="418" y="971"/>
      <point x="418" y="1085" type="curve" smooth="yes"/>
      <point x="418" y="1658" type="line"/>
      <point x="92" y="1658" type="line"/>
      <point x="92" y="1084" type="line" smooth="yes"/>
      <point x="92" y="825"/>
      <point x="281" y="686"/>
      <point x="536" y="686" type="curve" smooth="yes"/>
      <point x="590" y="686"/>
      <point x="663" y="692"/>
      <point x="742" y="705" type="curve"/>
    </contour>
  </outline>
</glyph>
<glyph name="afii10049" format="1">
  <advance width="1209"/>
  <unicode hex="042F"/>
  <outline>
    <contour>
      <point x="20" y="0" type="line"/>
      <point x="387" y="0" type="line"/>
      <point x="641" y="662" type="line"/>
      <point x="642" y="662"/>
      <point x="668" y="662"/>
      <point x="669" y="662" type="curve"/>
      <point x="744" y="662" type="line"/>
      <point x="744" y="0" type="line"/>
      <point x="1081" y="0" type="line"/>
      <point x="1081" y="1658" type="line"/>
      <point x="680" y="1658" type="line" smooth="yes"/>
      <point x="314" y="1658"/>
      <point x="125" y="1526"/>
      <point x="125" y="1173" type="curve" smooth="yes"/>
      <point x="125" y="963"/>
      <point x="215" y="812"/>
      <point x="345" y="739" type="curve"/>
    </contour>
    <contour>
      <point x="693" y="901" type="line"/>
      <point x="501" y="901"/>
      <point x="439" y="1008"/>
      <point x="439" y="1171" type="curve" smooth="yes"/>
      <point x="439" y="1342"/>
      <point x="521" y="1425"/>
      <point x="688" y="1425" type="curve" smooth="yes"/>
      <point x="744" y="1425" type="line"/>
      <point x="744" y="901" type="line"/>
    </contour>
  </outline>
</glyph>
<glyph name="afii10073" format="1">
  <advance width="882"/>
  <unicode hex="0437"/>
  <outline>
    <contour>
      <point x="439" y="-21" type="curve" smooth="yes"/>
      <point x="709" y="-21"/>
      <point x="823" y="118"/>
      <point x="823" y="325" type="curve" smooth="yes"/>
      <point x="823" y="535"/>
      <point x="734" y="582"/>
      <point x="638" y="615" type="curve"/>
      <point x="727" y="636"/>
      <point x="819" y="702"/>
      <point x="819" y="876" type="curve" smooth="yes"/>
      <point x="819" y="1054"/>
      <point x="710" y="1203"/>
      <point x="447" y="1203" type="curve" smooth="yes"/>
      <point x="161" y="1203"/>
      <point x="68" y="1050"/>
      <point x="68" y="819" type="curve"/>
      <point x="316" y="819" type="line"/>
      <point x="316" y="949"/>
      <point x="352" y="987"/>
      <point x="433" y="987" type="curve" smooth="yes"/>
      <point x="505" y="987"/>
      <point x="542" y="942"/>
      <point x="542" y="853" type="curve" smooth="yes"/>
      <point x="542" y="739"/>
      <point x="504" y="698"/>
      <point x="331" y="698" type="curve"/>
      <point x="331" y="526" type="line"/>
      <point x="502" y="526"/>
      <point x="558" y="492"/>
      <point x="558" y="365" type="curve" smooth="yes"/>
      <point x="558" y="267"/>
      <point x="542" y="192"/>
      <point x="447" y="192" type="curve" smooth="yes"/>
      <point x="365" y="192"/>
      <point x="326" y="251"/>
      <point x="326" y="388" type="curve"/>
      <point x="75" y="388" type="line"/>
      <point x="75" y="154"/>
      <point x="140" y="-21"/>
    </contour>
  </outline>
</glyph>
<glyph name="afii10077" format="1">
  <advance width="1120"/>
  <unicode hex="043B"/>
  <outline>
    <contour>
      <point x="30" y="-5" type="line"/>
      <point x="71" y="-9"/>
      <point x="116" y="-12"/>
      <point x="147" y="-12" type="curve" smooth="yes"/>
      <point x="411" y="-12"/>
      <point x="496" y="96"/>
      <point x="527" y="573" type="curve" smooth="yes"/>
      <point x="555" y="968" type="line"/>
      <point x="705" y="968" type="line"/>
      <point x="705" y="0" type="line"/>
      <point x="1015" y="0" type="line"/>
      <point x="1015" y="1184" type="line"/>
      <point x="291" y="1184" type="line"/>
      <point x="248" y="597" type="line" smooth="yes"/>
      <point x="229" y="298"/>
      <point x="214" y="194"/>
      <point x="30" y="210" type="curve"/>
    </contour>
  </outline>
</glyph>
<glyph name="afii10084" format="1">
  <advance width="798"/>
  <unicode hex="0442"/>
  <outline>
    <contour>
      <point x="243" y="0" type="line"/>
      <point x="553" y="0" type="line"/>
      <point x="553" y="970" type="line"/>
      <point x="767" y="970" type="line"/>
      <point x="767" y="1184" type="line"/>
      <point x="31" y="1184" type="line"/>
      <point x="31" y="970" type="line"/>
      <point x="243" y="970" type="line"/>
    </contour>
  </outline>
</glyph>
<glyph name="afii10086" format="1">
  <advance width="1386"/>
  <unicode hex="0444"/>
  <outline>
    <contour>
      <point x="555" y="-363" type="line"/>
      <point x="827" y="-363" type="line"/>
      <point x="827" y="29" type="line"/>
      <point x="862" y="29" type="line" smooth="yes"/>
      <point x="1034" y="29"/>
      <point x="1300" y="116"/>
      <point x="1300" y="460" type="curve" smooth="yes"/>
      <point x="1300" y="762" type="line" smooth="yes"/>
      <point x="1300" y="1051"/>
      <point x="1079" y="1176"/>
      <point x="863" y="1176" type="curve" smooth="yes"/>
      <point x="827" y="1176" type="line"/>
      <point x="827" y="1657" type="line"/>
      <point x="555" y="1657" type="line"/>
      <point x="555" y="1176" type="line"/>
      <point x="526" y="1176" type="line" smooth="yes"/>
      <point x="312" y="1176"/>
      <point x="86" y="1051"/>
      <point x="86" y="762" type="curve" smooth="yes"/>
      <point x="86" y="460" type="line" smooth="yes"/>
      <point x="86" y="116"/>
      <point x="352" y="29"/>
      <point x="526" y="29" type="curve" smooth="yes"/>
      <point x="555" y="29" type="line"/>
    </contour>
    <contour>
      <point x="535" y="220" type="line"/>
      <point x="432" y="220"/>
      <point x="372" y="290"/>
      <point x="372" y="444" type="curve" smooth="yes"/>
      <point x="372" y="791" type="line" smooth="yes"/>
      <point x="372" y="936"/>
      <point x="440" y="997"/>
      <point x="533" y="997" type="curve" smooth="yes"/>
      <point x="555" y="997" type="line"/>
      <point x="555" y="220" type="line"/>
    </contour>
    <contour>
      <point x="845" y="220" type="curve" smooth="yes"/>
      <point x="827" y="220" type="line"/>
      <point x="827" y="997" type="line"/>
      <point x="847" y="997" type="line" smooth="yes"/>
      <point x="940" y="997"/>
      <point x="1013" y="936"/>
      <point x="1013" y="791" type="curve" smooth="yes"/>
      <point x="1013" y="444" type="line" smooth="yes"/>
      <point x="1013" y="290"/>
      <point x="942" y="220"/>
    </contour>
  </outline>
</glyph>
<glyph name="afii10106" format="1">
  <advance width="1581"/>
  <unicode hex="0459"/>
  <outline>
    <contour>
      <point x="55" y="-5" type="line"/>
      <point x="78" y="-8"/>
      <point x="110" y="-10"/>
      <point x="130" y="-11" type="curve" smooth="yes"/>
      <point x="433" y="-25"/>
      <point x="522" y="71"/>
      <point x="555" y="610" type="curve" smooth="yes"/>
      <point x="580" y="968" type="line"/>
      <point x="730" y="968" type="line"/>
      <point x="730" y="0" type="line"/>
      <point x="1048" y="0" type="line" smooth="yes"/>
      <point x="1390" y="3"/>
      <point x="1527" y="95"/>
      <point x="1527" y="347" type="curve" smooth="yes"/>
      <point x="1527" y="627"/>
      <point x="1368" y="703"/>
      <point x="1055" y="703" type="curve" smooth="yes"/>
      <point x="1040" y="703" type="line"/>
      <point x="1040" y="1184" type="line"/>
      <point x="315" y="1184" type="line"/>
      <point x="280" y="673" type="line" smooth="yes"/>
      <point x="254" y="271"/>
      <point x="233" y="199"/>
      <point x="55" y="210" type="curve"/>
    </contour>
    <contour>
      <point x="1040" y="177" type="curve"/>
      <point x="1040" y="521" type="line"/>
      <point x="1041" y="521"/>
      <point x="1044" y="521"/>
      <point x="1045" y="521" type="curve" smooth="yes"/>
      <point x="1194" y="520"/>
      <point x="1247" y="480"/>
      <point x="1247" y="346" type="curve" smooth="yes"/>
      <point x="1247" y="217"/>
      <point x="1193" y="179"/>
      <point x="1046" y="177" type="curve" smooth="yes"/>
      <point x="1045" y="177"/>
      <point x="1041" y="177"/>
    </contour>
  </outline>
</glyph>
<glyph name="afii10107" format="1">
  <advance width="1439"/>
  <unicode hex="045A"/>
  <outline>
    <contour>
      <point x="106" y="0" type="line"/>
      <point x="415" y="0" type="line"/>
      <point x="415" y="465" type="line"/>
      <point x="601" y="465" type="line"/>
      <point x="601" y="1" type="line"/>
      <point x="910" y="1" type="line" smooth="yes"/>
      <point x="1252" y="4"/>
      <point x="1390" y="96"/>
      <point x="1390" y="348" type="curve" smooth="yes"/>
      <point x="1390" y="625"/>
      <point x="1237" y="698"/>
      <point x="931" y="704" type="curve" smooth="yes"/>
      <point x="924" y="704"/>
      <point x="917" y="704"/>
      <point x="910" y="704" type="curve"/>
      <point x="910" y="1185" type="line"/>
      <point x="601" y="1185" type="line"/>
      <point x="601" y="709" type="line"/>
      <point x="415" y="709" type="line"/>
      <point x="415" y="1184" type="line"/>
      <point x="106" y="1184" type="line"/>
    </contour>
    <contour>
      <point x="910" y="179" type="curve"/>
      <point x="910" y="522" type="line"/>
      <point x="914" y="522"/>
      <point x="917" y="522"/>
      <point x="920" y="521" type="curve" smooth="yes"/>
      <point x="1060" y="516"/>
      <point x="1110" y="477"/>
      <point x="1110" y="347" type="curve" smooth="yes"/>
      <point x="1110" y="221"/>
      <point x="1059" y="184"/>
      <point x="920" y="179" type="curve" smooth="yes"/>
      <point x="917" y="179"/>
      <point x="913" y="179"/>
    </contour>
  </outline>
</glyph>
<glyph name="uni04AF" format="1">
  <advance width="884"/>
  <unicode hex="04AF"/>
  <outline>
    <contour>
      <point x="313" y="-359" type="line"/>
      <point x="585" y="-359" type="line"/>
      <point x="585" y="145" type="line"/>
      <point x="868" y="1184" type="line"/>
      <point x="582" y="1184" type="line"/>
      <point x="450" y="536" type="line"/>
      <point x="295" y="1184" type="line"/>
      <point x="9" y="1184" type="line"/>
      <point x="313" y="141" type="line" smooth="yes"/>
    </contour>
  </outline>
</glyph>
<glyph name="quotesinglbase" format="1">
  <advance width="572"/>
  <unicode hex="201A"/>
  <outline>
    <contour>
      <point x="205" y="-238" type="line"/>
      <point x="388" y="-238"/>
      <point x="440" y="-115"/>
      <point x="447" y="119" type="curve" smooth="yes"/>
      <point x="449" y="156"/>
      <point x="449" y="292"/>
      <point x="449" y="340" type="curve"/>
      <point x="163" y="340" type="line"/>
      <point x="163" y="62" type="line"/>
      <point x="299" y="62" type="line"/>
      <point x="299" y="-61"/>
      <point x="278" y="-136"/>
      <point x="176" y="-136" type="curve"/>
    </contour>
  </outline>
</glyph>
<glyph name="quotedblbase" format="1">
  <advance width="974"/>
  <unicode hex="201E"/>
  <outline>
    <contour>
      <point x="199" y="-236" type="line"/>
      <point x="382" y="-236"/>
      <point x="434" y="-113"/>
      <point x="441" y="121" type="curve" smooth="yes"/>
      <point x="443" y="158"/>
      <point x="443" y="294"/>
      <point x="443" y="342" type="curve"/>
      <point x="157" y="342" type="line"/>
      <point x="157" y="64" type="line"/>
      <point x="293" y="64" type="line"/>
      <point x="293" y="-59"/>
      <point x="272" y="-134"/>
      <point x="170" y="-134" type="curve"/>
    </contour>
    <contour>
      <point x="640" y="-236" type="line"/>
      <point x="823" y="-236"/>
      <point x="875" y="-113"/>
      <point x="882" y="121" type="curve" smooth="yes"/>
      <point x="884" y="158"/>
      <point x="884" y="294"/>
      <point x="884" y="342" type="curve"/>
      <point x="598" y="342" type="line"/>
      <point x="598" y="64" type="line"/>
      <point x="734" y="64" type="line"/>
      <point x="734" y="-59"/>
      <point x="713" y="-134"/>
      <point x="611" y="-134" type="curve"/>
    </contour>
  </outline>
</glyph>
<glyph name="notequal" format="1">
  <advance width="908"/>
  <unicode hex="2260"/>
  <outline>
    <contour>
      <point x="118" y="0" type="line"/>
      <point x="306" y="0" type="line"/>
      <point x="459" y="523" type="line"/>
      <point x="784" y="523" type="line"/>
      <point x="784" y="721" type="line"/>
      <point x="518" y="721" type="line"/>
      <point x="573" y="906" type="line"/>
      <point x="784" y="906" type="line"/>
      <point x="784" y="1104" type="line"/>
      <point x="632" y="1104" type="line"/>
      <point x="795" y="1658" type="line"/>
      <point x="607" y="1658" type="line"/>
      <point x="443" y="1104" type="line"/>
      <point x="137" y="1104" type="line"/>
      <point x="137" y="906" type="line"/>
      <point x="385" y="906" type="line"/>
      <point x="330" y="721" type="line"/>
      <point x="137" y="721" type="line"/>
      <point x="137" y="523" type="line"/>
      <point x="271" y="523" type="line"/>
    </contour>
  </outline>
</glyph>
<glyph name="uniFB02" format="1">
  <advance width="1119"/>
  <unicode hex="FB02"/>
  <outline>
    <contour>
      <point x="456" y="963" type="line"/>
      <point x="595" y="963" type="line"/>
      <point x="595" y="1184" type="line"/>
      <point x="456" y="1184" type="line"/>
      <point x="456" y="1184"/>
      <point x="456" y="1258"/>
      <point x="456" y="1259" type="curve" smooth="yes"/>
      <point x="456" y="1360"/>
      <point x="463" y="1437"/>
      <point x="628" y="1437" type="curve" smooth="yes"/>
      <point x="652" y="1437"/>
      <point x="680" y="1436"/>
      <point x="712" y="1432" type="curve"/>
      <point x="712" y="0" type="line"/>
      <point x="1021" y="0" type="line"/>
      <point x="1021" y="1602" type="line"/>
      <point x="848" y="1636"/>
      <point x="709" y="1650"/>
      <point x="597" y="1650" type="curve" smooth="yes"/>
      <point x="169" y="1650"/>
      <point x="147" y="1437"/>
      <point x="147" y="1258" type="curve" smooth="yes"/>
      <point x="147" y="1184" type="line"/>
      <point x="27" y="1184" type="line"/>
      <point x="27" y="963" type="line"/>
      <point x="147" y="963" type="line"/>
      <point x="147" y="0" type="line"/>
      <point x="456" y="0" type="line"/>
    </contour>
  </outline>
</glyph>
